<mxfile host="65bd71144e">
    <diagram id="cbbbU2l8qTkERXbWTbrK" name="Page-1">
        <mxGraphModel dx="906" dy="456" grid="1" gridSize="10" guides="1" tooltips="1" connect="1" arrows="1" fold="1" page="1" pageScale="1" pageWidth="850" pageHeight="1100" math="0" shadow="0">
            <root>
                <mxCell id="0"/>
                <mxCell id="1" parent="0"/>
                <mxCell id="2" value="&lt;b&gt;&lt;font style=&quot;font-size: 12px;&quot;&gt;STALL UNIT&lt;/font&gt;&lt;/b&gt;" style="rounded=1;whiteSpace=wrap;html=1;" vertex="1" parent="1">
                    <mxGeometry x="265" y="480" width="320" height="160" as="geometry"/>
                </mxCell>
                <mxCell id="3" value="reg_rs1_addr" style="html=1;shadow=0;dashed=0;align=left;verticalAlign=middle;shape=mxgraph.arrows2.arrow;dy=0;dx=10;notch=0;labelPosition=right;verticalLabelPosition=middle;spacing=5;movable=1;resizable=1;rotatable=1;deletable=1;editable=1;locked=0;connectable=1;" vertex="1" parent="1">
                    <mxGeometry x="255" y="510" width="20" height="10" as="geometry"/>
                </mxCell>
                <mxCell id="4" value="reg_rs2_addr" style="html=1;shadow=0;dashed=0;align=left;verticalAlign=middle;shape=mxgraph.arrows2.arrow;dy=0;dx=10;notch=0;labelPosition=right;verticalLabelPosition=middle;spacing=5;movable=1;resizable=1;rotatable=1;deletable=1;editable=1;locked=0;connectable=1;" vertex="1" parent="1">
                    <mxGeometry x="255" y="530" width="20" height="10" as="geometry"/>
                </mxCell>
                <mxCell id="5" value="id_ex_reg_wr_addr" style="html=1;shadow=0;dashed=0;align=left;verticalAlign=middle;shape=mxgraph.arrows2.arrow;dy=0;dx=10;notch=0;labelPosition=right;verticalLabelPosition=middle;spacing=5;movable=1;resizable=1;rotatable=1;deletable=1;editable=1;locked=0;connectable=1;" vertex="1" parent="1">
                    <mxGeometry x="255" y="550" width="20" height="10" as="geometry"/>
                </mxCell>
                <mxCell id="6" value="id_ex_reg_wr_sig" style="html=1;shadow=0;dashed=0;align=left;verticalAlign=middle;shape=mxgraph.arrows2.arrow;dy=0;dx=10;notch=0;labelPosition=right;verticalLabelPosition=middle;spacing=5;movable=1;resizable=1;rotatable=1;deletable=1;editable=1;locked=0;connectable=1;" vertex="1" parent="1">
                    <mxGeometry x="255" y="570" width="20" height="10" as="geometry"/>
                </mxCell>
                <mxCell id="7" value="id_ex_data_dest" style="html=1;shadow=0;dashed=0;align=left;verticalAlign=middle;shape=mxgraph.arrows2.arrow;dy=0;dx=10;notch=0;labelPosition=right;verticalLabelPosition=middle;spacing=5;movable=1;resizable=1;rotatable=1;deletable=1;editable=1;locked=0;connectable=1;" vertex="1" parent="1">
                    <mxGeometry x="255" y="590" width="20" height="10" as="geometry"/>
                </mxCell>
                <mxCell id="8" value="stall" style="html=1;shadow=0;dashed=0;align=right;verticalAlign=middle;shape=mxgraph.arrows2.arrow;dy=0;dx=10;notch=0;labelPosition=left;verticalLabelPosition=middle;spacing=5;movable=1;resizable=1;rotatable=1;deletable=1;editable=1;locked=0;connectable=1;" vertex="1" parent="1">
                    <mxGeometry x="575" y="510" width="20" height="10" as="geometry"/>
                </mxCell>
            </root>
        </mxGraphModel>
    </diagram>
</mxfile>